<?xml version="1.0" encoding="UTF-8"?>
<!DOCTYPE svg PUBLIC "-//W3C//DTD SVG 1.1//EN" "http://www.w3.org/Graphics/SVG/1.1/DTD/svg11.dtd">
<!-- Creator: CorelDRAW X8 -->
<svg xmlns="http://www.w3.org/2000/svg" xml:space="preserve" width="210mm" height="297mm" version="1.1" style="shape-rendering:geometricPrecision; text-rendering:geometricPrecision; image-rendering:optimizeQuality; fill-rule:evenodd; clip-rule:evenodd"
viewBox="0 0 21000 29700"
 xmlns:xlink="http://www.w3.org/1999/xlink">
 <defs>
  <style type="text/css">
   <![CDATA[
    .fil1 {fill:#003333}
    .fil0 {fill:#669966}
    .fil2 {fill:#003333;fill-rule:nonzero}
   ]]>
  </style>
 </defs>
 <g id="Layer_x0020_1">
  <metadata id="CorelCorpID_0Corel-Layer"/>
  <path class="fil0" d="M12693 16351l1172 0c10,0 20,1 30,3 38,-40 64,-65 150,-65 86,0 205,92 205,205 0,113 -119,205 -205,205 -86,0 -112,-25 -150,-65 -10,2 -20,3 -30,3l-734 0 -438 -286zm928 -4401l244 0c10,0 20,1 30,3 38,-40 64,-65 150,-65 86,0 205,92 205,205 0,113 -119,205 -205,205 -86,0 -112,-25 -150,-65 -10,2 -20,3 -30,3l-166 0c-12,-102 -39,-198 -78,-286zm-60 1100l304 0c10,0 20,1 30,3 38,-40 64,-65 150,-65 86,0 205,92 205,205 0,113 -119,205 -205,205 -86,0 -112,-25 -150,-65 -10,2 -20,3 -30,3l-395 0 91 -286zm-349 1100l653 0c10,0 20,1 30,3 38,-40 64,-65 150,-65 86,0 205,92 205,205 0,114 -119,205 -205,205 -86,0 -112,-25 -150,-65 -10,2 -20,4 -30,4l-743 0 90 -287zm-423 1332l2 0 73 -232 1001 0c10,0 20,1 30,3 38,-40 64,-65 150,-65 86,0 205,92 205,206 0,113 -119,205 -205,205 -86,0 -112,-25 -150,-65 -10,2 -20,3 -30,3l-1094 0 18 -55z"/>
  <path class="fil0" d="M7102 16351l143 0c13,102 39,198 78,286l-221 0c-37,38 -62,62 -147,62 -85,0 -205,-92 -205,-205 0,-113 120,-205 205,-205 85,0 110,23 147,62zm0 -4401l815 0 52 33 395 253 -1262 0c-37,38 -62,62 -147,62 -85,0 -205,-92 -205,-205 0,-113 120,-205 205,-205 85,0 110,23 147,62zm0 1100l1069 0 -91 286 -978 0c-37,38 -62,62 -147,62 -85,0 -205,-92 -205,-205 0,-113 120,-205 205,-205 85,0 110,24 147,62zm0 1100l721 0 -91 287 -630 0c-37,38 -62,61 -147,61 -85,0 -205,-91 -205,-205 0,-113 120,-205 205,-205 85,0 110,24 147,62zm0 1100l372 0 -90 287 -282 0c-37,38 -62,62 -147,62 -85,0 -205,-92 -205,-205 0,-114 120,-206 205,-206 85,0 110,24 147,62z"/>
  <path class="fil1" d="M7610 11753l5103 -321c746,-48 1166,612 929,1360l-892 2811 -1628 0 668 -2050c-343,0 -684,2 -1031,2l-878 2700 2665 0 810 529 -5124 370c-746,54 -1167,-612 -930,-1360l871 -2751 1006 0 -1046 3212 1031 0 1045 -3212 1787 0 251 -773 -3829 0 -449 -287 -359 -230z"/>
  <polygon class="fil2" points="7531,17726 7776,17726 7776,18408 7854,18408 7854,17726 8099,17726 8099,17646 7531,17646 "/>
  <polygon id="1" class="fil2" points="8185,18408 8686,18408 8686,18328 8264,18328 8264,18067 8572,18067 8572,17987 8264,17987 8264,17726 8686,17726 8686,17646 8185,17646 "/>
  <polygon id="2" class="fil2" points="8943,17992 9288,17646 9176,17646 8851,17971 8851,17646 8771,17646 8771,18408 8851,18408 8851,18084 8886,18048 9246,18408 9358,18408 "/>
  <polygon id="3" class="fil2" points="9984,18257 9507,17646 9443,17646 9443,18408 9523,18408 9523,17798 10000,18408 10064,18408 10064,17646 9984,17646 "/>
  <path id="4" class="fil2" d="M10528 17646c-209,0 -378,170 -378,379 0,209 169,379 378,379 207,0 377,-170 377,-379 0,-209 -170,-379 -377,-379zm0 680c-165,0 -300,-136 -300,-301 0,-165 135,-300 300,-300 165,0 299,135 299,300 0,165 -134,301 -299,301z"/>
  <polygon id="5" class="fil2" points="11070,18329 11070,17646 10990,17646 10990,18408 11494,18408 11494,18329 "/>
  <path id="6" class="fil2" d="M11851 17646c-208,0 -378,170 -378,379 0,209 170,379 378,379 208,0 377,-170 377,-379 0,-209 -169,-379 -377,-379zm0 680c-165,0 -299,-136 -299,-301 0,-165 134,-300 299,-300 166,0 300,135 300,300 0,165 -134,301 -300,301z"/>
  <path id="7" class="fil2" d="M12684 18141l291 0c-46,113 -155,189 -280,189 -167,0 -303,-135 -303,-302 0,-167 136,-303 303,-303 132,0 248,87 287,212l82 0c-41,-169 -193,-291 -369,-291 -211,0 -381,172 -381,382 0,211 170,380 381,380 182,0 354,-125 374,-306l4 -41 -389 0 0 80z"/>
  <polygon id="8" class="fil2" points="13414,17726 13414,17646 13074,17646 13074,17726 13204,17726 13204,18329 13074,18329 13074,18408 13414,18408 13414,18329 13284,18329 13284,17726 "/>
 </g>
</svg>
